<svg xmlns="http://www.w3.org/2000/svg" width="1660" height="754" viewBox="0 0 1660 754">
<defs>
<marker id="arrow" markerWidth="12" markerHeight="12" refX="10" refY="6" orient="auto" markerUnits="strokeWidth">
<path d="M2,2 L10,6 L2,10 z" fill="#94a3b8"/>
</marker>
</defs>
<style>
.title{font:700 24px Arial,sans-serif;fill:#e5e7eb}
.subtitle{font:13px Arial,sans-serif;fill:#a7b0be}
.group-label{font:700 14px Arial,sans-serif;fill:#a7b0be}
.node-title{font:700 17px Arial,sans-serif;fill:#e5e7eb}
.node-body{font:13px Arial,sans-serif;fill:#a7b0be}
</style>
<rect x="0" y="0" width="1660" height="754" fill="#0b1120"/>
<text x="40" y="64" class="title">Parser App Data Flow</text>
<text x="40" y="87" class="subtitle">parser_app.py prepares configs and probes; pipeline.py runs the display-oriented DeepStream graph.</text>
<rect x="40" y="370" width="270" height="192" rx="10" fill="#0f172a" stroke="#334155" stroke-width="1.6" stroke-dasharray="7 7"/>
<text x="56" y="548" class="group-label">scripts/start_rtsp_stream.sh</text>
<rect x="350" y="138" width="960" height="192" rx="10" fill="#0f172a" stroke="#334155" stroke-width="1.6" stroke-dasharray="7 7"/>
<text x="366" y="316" class="group-label">src/parser_app.py</text>
<rect x="350" y="370" width="1270" height="344" rx="10" fill="#0f172a" stroke="#334155" stroke-width="1.6" stroke-dasharray="7 7"/>
<text x="366" y="700" class="group-label">src/deepstream_yolo/pipeline.py + probe helpers</text>
<rect x="390" y="178" width="190" height="112" rx="8" fill="#111827" stroke="#38bdf8" stroke-width="1.8"/>
<text x="405" y="208" class="node-title">Args + configs</text>
<text x="405" y="240" class="node-body">parse args</text>
<text x="405" y="263" class="node-body">ensure model configs</text>
<rect x="620" y="178" width="190" height="112" rx="8" fill="#111827" stroke="#38bdf8" stroke-width="1.8"/>
<text x="635" y="208" class="node-title">Build pipeline</text>
<text x="635" y="240" class="node-body">build_pipeline()</text>
<text x="635" y="263" class="node-body">shared GStreamer graph</text>
<rect x="850" y="178" width="190" height="112" rx="8" fill="#111827" stroke="#38bdf8" stroke-width="1.8"/>
<text x="865" y="208" class="node-title">Attach probes</text>
<text x="865" y="240" class="node-body">bbox + assessment</text>
<text x="865" y="263" class="node-body">timing + rate limit</text>
<rect x="1080" y="178" width="190" height="112" rx="8" fill="#111827" stroke="#38bdf8" stroke-width="1.8"/>
<text x="1095" y="208" class="node-title">Run loop</text>
<text x="1095" y="240" class="node-body">keyboard controls</text>
<text x="1095" y="263" class="node-body">bus messages</text>
<rect x="80" y="410" width="190" height="112" rx="8" fill="#111827" stroke="#38bdf8" stroke-width="1.8"/>
<text x="95" y="440" class="node-title">Video input</text>
<text x="95" y="472" class="node-body">RTSP camera</text>
<text x="95" y="495" class="node-body">or local MP4</text>
<rect x="390" y="410" width="190" height="112" rx="8" fill="#111827" stroke="#38bdf8" stroke-width="1.8"/>
<text x="405" y="440" class="node-title">Decode + mux</text>
<text x="405" y="472" class="node-body">parser -> decoder</text>
<text x="405" y="495" class="node-body">nvstreammux</text>
<rect x="620" y="410" width="190" height="112" rx="8" fill="#111827" stroke="#38bdf8" stroke-width="1.8"/>
<text x="635" y="440" class="node-title">YOLO detector</text>
<text x="635" y="472" class="node-body">nvinfer PGIE</text>
<text x="635" y="495" class="node-body">person ids + conf</text>
<rect x="850" y="410" width="190" height="112" rx="8" fill="#111827" stroke="#38bdf8" stroke-width="1.8"/>
<text x="865" y="440" class="node-title">BBox probe</text>
<text x="865" y="472" class="node-body">detection_overlay.py</text>
<text x="865" y="495" class="node-body">draw person boxes</text>
<rect x="1080" y="410" width="190" height="112" rx="8" fill="#111827" stroke="#38bdf8" stroke-width="1.8"/>
<text x="1095" y="440" class="node-title">OSD + convert</text>
<text x="1095" y="472" class="node-body">RGBA caps</text>
<text x="1095" y="495" class="node-body">nvdsosd overlays</text>
<rect x="1390" y="410" width="190" height="112" rx="8" fill="#111827" stroke="#38bdf8" stroke-width="1.8"/>
<text x="1405" y="440" class="node-title">Display sink</text>
<text x="1405" y="472" class="node-body">nveglglessink</text>
<text x="1405" y="495" class="node-body">or fakesink</text>
<rect x="620" y="562" width="190" height="112" rx="8" fill="#111827" stroke="#38bdf8" stroke-width="1.8"/>
<text x="635" y="592" class="node-title">Injury model</text>
<text x="635" y="624" class="node-body">nvinfer SGIE</text>
<text x="635" y="647" class="node-body">optional assessment</text>
<rect x="850" y="562" width="190" height="112" rx="8" fill="#111827" stroke="#38bdf8" stroke-width="1.8"/>
<text x="865" y="592" class="node-title">Assess probe</text>
<text x="865" y="624" class="node-body">assessment_runtime.py</text>
<text x="865" y="647" class="node-body">fresh labels/logs</text>
<rect x="1080" y="562" width="190" height="112" rx="8" fill="#111827" stroke="#38bdf8" stroke-width="1.8"/>
<text x="1095" y="592" class="node-title">Display policy</text>
<text x="1095" y="624" class="node-body">show all frames</text>
<text x="1095" y="647" class="node-body">or assessed only</text>
<path d="M 580.0 234.0 L 620.0 234.0" fill="none" stroke="#94a3b8" stroke-width="2.4" stroke-linejoin="round" stroke-linecap="round" marker-end="url(#arrow)"/>
<path d="M 810.0 234.0 L 850.0 234.0" fill="none" stroke="#94a3b8" stroke-width="2.4" stroke-linejoin="round" stroke-linecap="round" marker-end="url(#arrow)"/>
<path d="M 1040.0 234.0 L 1080.0 234.0" fill="none" stroke="#94a3b8" stroke-width="2.4" stroke-linejoin="round" stroke-linecap="round" marker-end="url(#arrow)"/>
<path d="M 715.0 290.0 L 715.0 350.0 L 485.0 350.0 L 485.0 410.0" fill="none" stroke="#94a3b8" stroke-width="2.4" stroke-linejoin="round" stroke-linecap="round" marker-end="url(#arrow)"/>
<path d="M 945.0 290.0 L 945.0 350.0 L 945.0 350.0 L 945.0 410.0" fill="none" stroke="#94a3b8" stroke-width="2.4" stroke-linejoin="round" stroke-linecap="round" marker-end="url(#arrow)"/>
<path d="M 992.5 290.0 L 992.5 562.0" fill="none" stroke="#94a3b8" stroke-width="2.4" stroke-linejoin="round" stroke-linecap="round" marker-end="url(#arrow)"/>
<path d="M 1175.0 290.0 L 1175.0 350.0 L 1485.0 350.0 L 1485.0 410.0" fill="none" stroke="#94a3b8" stroke-width="2.4" stroke-linejoin="round" stroke-linecap="round" marker-end="url(#arrow)"/>
<path d="M 270.0 466.0 L 390.0 466.0" fill="none" stroke="#94a3b8" stroke-width="2.4" stroke-linejoin="round" stroke-linecap="round" marker-end="url(#arrow)"/>
<path d="M 580.0 466.0 L 620.0 466.0" fill="none" stroke="#94a3b8" stroke-width="2.4" stroke-linejoin="round" stroke-linecap="round" marker-end="url(#arrow)"/>
<path d="M 810.0 466.0 L 850.0 466.0" fill="none" stroke="#94a3b8" stroke-width="2.4" stroke-linejoin="round" stroke-linecap="round" marker-end="url(#arrow)"/>
<path d="M 1040.0 438.0 L 1080.0 438.0" fill="none" stroke="#94a3b8" stroke-width="2.4" stroke-linejoin="round" stroke-linecap="round" marker-end="url(#arrow)"/>
<path d="M 1270.0 466.0 L 1390.0 466.0" fill="none" stroke="#94a3b8" stroke-width="2.4" stroke-linejoin="round" stroke-linecap="round" marker-end="url(#arrow)"/>
<path d="M 715.0 522.0 L 715.0 562.0" fill="none" stroke="#94a3b8" stroke-width="2.4" stroke-linejoin="round" stroke-linecap="round" marker-end="url(#arrow)"/>
<path d="M 810.0 618.0 L 850.0 618.0" fill="none" stroke="#94a3b8" stroke-width="2.4" stroke-linejoin="round" stroke-linecap="round" marker-end="url(#arrow)"/>
<path d="M 1040.0 618.0 L 1080.0 618.0" fill="none" stroke="#94a3b8" stroke-width="2.4" stroke-linejoin="round" stroke-linecap="round" marker-end="url(#arrow)"/>
<path d="M 1175.0 562.0 L 1175.0 522.0" fill="none" stroke="#94a3b8" stroke-width="2.4" stroke-linejoin="round" stroke-linecap="round" marker-end="url(#arrow)"/>
</svg>
